# xmcd
#
# Track frame offsets:
#	150
#	39390
#	75190
#	98804
#	140115
#	175327
#
# Disc length: 2747 seconds
#
# Revision: 0
# Processed by: cddbd v1.5.2PL0 Copyright (c) Steve Scherf et al.
# Submitted via: audiograbber 1.83.01
#
DISCID=430ab906
DTITLE=Grateful Dead - 92-06-06 Rich Stadium, Orchard Park NY
DYEAR=1900
DGENRE=
TTITLE0=Space
TTITLE1=The Other One
TTITLE2=The Wheel
TTITLE3=Throwing Stones
TTITLE4=One More Saturday Night
TTITLE5=Baba O'Riley > Tomorrow Never Knows
EXTD=
EXTT0=
EXTT1=
EXTT2=
EXTT3=
EXTT4=
EXTT5=
PLAYORDER=
